<mxfile host="app.diagrams.net" modified="2021-10-12T09:22:37.484Z" agent="5.0 (X11; Linux x86_64) AppleWebKit/537.36 (KHTML, like Gecko) Chrome/92.0.4515.131 Safari/537.36" etag="hmR3R7DiIHlFar3PTuW2" version="15.5.0" type="github">
  <diagram id="9J9F7_jm1cELa0e6smn7" name="Page-1">
    <mxGraphModel dx="1628" dy="703" grid="0" gridSize="10" guides="1" tooltips="1" connect="1" arrows="1" fold="1" page="0" pageScale="1" pageWidth="827" pageHeight="1169" math="0" shadow="0">
      <root>
        <mxCell id="0" />
        <mxCell id="1" parent="0" />
        <mxCell id="q3SY9Z04a5LSegk2IjPD-1" value="HUMAN" style="rounded=0;whiteSpace=wrap;html=1;fillColor=#dae8fc;strokeColor=#6c8ebf;" parent="1" vertex="1">
          <mxGeometry x="356" y="66" width="120" height="60" as="geometry" />
        </mxCell>
        <mxCell id="q3SY9Z04a5LSegk2IjPD-2" value="&lt;b&gt;&lt;font style=&quot;font-size: 14px&quot;&gt;KEY&lt;/font&gt;&lt;/b&gt;" style="text;html=1;strokeColor=none;fillColor=none;align=center;verticalAlign=middle;whiteSpace=wrap;rounded=0;" parent="1" vertex="1">
          <mxGeometry x="455" y="17" width="60" height="30" as="geometry" />
        </mxCell>
        <mxCell id="q3SY9Z04a5LSegk2IjPD-3" value="AUTOMATIC" style="rounded=0;whiteSpace=wrap;html=1;fillColor=#d5e8d4;strokeColor=#82b366;" parent="1" vertex="1">
          <mxGeometry x="506" y="66" width="120" height="60" as="geometry" />
        </mxCell>
        <mxCell id="q3SY9Z04a5LSegk2IjPD-17" style="edgeStyle=orthogonalEdgeStyle;rounded=0;orthogonalLoop=1;jettySize=auto;html=1;entryX=0.5;entryY=0;entryDx=0;entryDy=0;fontSize=14;" parent="1" source="q3SY9Z04a5LSegk2IjPD-4" target="q3SY9Z04a5LSegk2IjPD-5" edge="1">
          <mxGeometry relative="1" as="geometry" />
        </mxCell>
        <mxCell id="q3SY9Z04a5LSegk2IjPD-4" value="NEW FEATURE OR CHANGE" style="ellipse;whiteSpace=wrap;html=1;fontSize=14;fillColor=#f8cecc;strokeColor=#b85450;" parent="1" vertex="1">
          <mxGeometry x="140" y="120" width="120" height="80" as="geometry" />
        </mxCell>
        <mxCell id="q3SY9Z04a5LSegk2IjPD-18" style="edgeStyle=orthogonalEdgeStyle;rounded=0;orthogonalLoop=1;jettySize=auto;html=1;entryX=0;entryY=0.5;entryDx=0;entryDy=0;fontSize=14;" parent="1" source="q3SY9Z04a5LSegk2IjPD-5" target="q3SY9Z04a5LSegk2IjPD-6" edge="1">
          <mxGeometry relative="1" as="geometry" />
        </mxCell>
        <mxCell id="q3SY9Z04a5LSegk2IjPD-5" value="CREATE BRANCH FOR CHANGE" style="rounded=0;whiteSpace=wrap;html=1;fillColor=#dae8fc;strokeColor=#6c8ebf;" parent="1" vertex="1">
          <mxGeometry x="140" y="270" width="120" height="60" as="geometry" />
        </mxCell>
        <mxCell id="q3SY9Z04a5LSegk2IjPD-19" style="edgeStyle=orthogonalEdgeStyle;rounded=0;orthogonalLoop=1;jettySize=auto;html=1;entryX=0;entryY=0.5;entryDx=0;entryDy=0;fontSize=14;" parent="1" source="q3SY9Z04a5LSegk2IjPD-6" target="q3SY9Z04a5LSegk2IjPD-7" edge="1">
          <mxGeometry relative="1" as="geometry" />
        </mxCell>
        <mxCell id="q3SY9Z04a5LSegk2IjPD-6" value="ADD COMMIT AND PUSH TO REPO" style="rounded=0;whiteSpace=wrap;html=1;fillColor=#dae8fc;strokeColor=#6c8ebf;" parent="1" vertex="1">
          <mxGeometry x="320" y="270" width="120" height="60" as="geometry" />
        </mxCell>
        <mxCell id="q3SY9Z04a5LSegk2IjPD-20" value="YES" style="edgeStyle=orthogonalEdgeStyle;rounded=0;orthogonalLoop=1;jettySize=auto;html=1;entryX=0.5;entryY=0;entryDx=0;entryDy=0;fontSize=14;" parent="1" source="q3SY9Z04a5LSegk2IjPD-7" target="q3SY9Z04a5LSegk2IjPD-8" edge="1">
          <mxGeometry relative="1" as="geometry">
            <Array as="points">
              <mxPoint x="570" y="370" />
              <mxPoint x="570" y="370" />
            </Array>
          </mxGeometry>
        </mxCell>
        <mxCell id="q3SY9Z04a5LSegk2IjPD-28" style="edgeStyle=orthogonalEdgeStyle;rounded=0;orthogonalLoop=1;jettySize=auto;html=1;entryX=0.5;entryY=0;entryDx=0;entryDy=0;fontSize=14;" parent="1" source="q3SY9Z04a5LSegk2IjPD-7" target="q3SY9Z04a5LSegk2IjPD-6" edge="1">
          <mxGeometry relative="1" as="geometry">
            <Array as="points">
              <mxPoint x="570" y="200" />
              <mxPoint x="380" y="200" />
            </Array>
          </mxGeometry>
        </mxCell>
        <mxCell id="q3SY9Z04a5LSegk2IjPD-29" value="NO" style="edgeLabel;html=1;align=center;verticalAlign=middle;resizable=0;points=[];fontSize=14;" parent="q3SY9Z04a5LSegk2IjPD-28" vertex="1" connectable="0">
          <mxGeometry x="-0.8924" y="-2" relative="1" as="geometry">
            <mxPoint as="offset" />
          </mxGeometry>
        </mxCell>
        <mxCell id="q3SY9Z04a5LSegk2IjPD-7" value="CHANGE READY" style="rhombus;whiteSpace=wrap;html=1;fontSize=14;fillColor=#dae8fc;strokeColor=#6c8ebf;" parent="1" vertex="1">
          <mxGeometry x="530" y="260" width="80" height="80" as="geometry" />
        </mxCell>
        <mxCell id="q3SY9Z04a5LSegk2IjPD-21" style="edgeStyle=orthogonalEdgeStyle;rounded=0;orthogonalLoop=1;jettySize=auto;html=1;entryX=1;entryY=0.5;entryDx=0;entryDy=0;fontSize=14;" parent="1" source="q3SY9Z04a5LSegk2IjPD-8" target="q3SY9Z04a5LSegk2IjPD-9" edge="1">
          <mxGeometry relative="1" as="geometry" />
        </mxCell>
        <mxCell id="q3SY9Z04a5LSegk2IjPD-8" value="CREATE MERGE REQUEST TO MAIN" style="rounded=0;whiteSpace=wrap;html=1;fillColor=#dae8fc;strokeColor=#6c8ebf;" parent="1" vertex="1">
          <mxGeometry x="510" y="390" width="120" height="60" as="geometry" />
        </mxCell>
        <mxCell id="q3SY9Z04a5LSegk2IjPD-22" style="edgeStyle=orthogonalEdgeStyle;rounded=0;orthogonalLoop=1;jettySize=auto;html=1;entryX=1;entryY=0.5;entryDx=0;entryDy=0;fontSize=14;" parent="1" source="q3SY9Z04a5LSegk2IjPD-9" target="q3SY9Z04a5LSegk2IjPD-10" edge="1">
          <mxGeometry relative="1" as="geometry" />
        </mxCell>
        <mxCell id="q3SY9Z04a5LSegk2IjPD-9" value="BUILD IMAGE" style="rounded=0;whiteSpace=wrap;html=1;fillColor=#d5e8d4;strokeColor=#82b366;" parent="1" vertex="1">
          <mxGeometry x="320" y="390" width="120" height="60" as="geometry" />
        </mxCell>
        <mxCell id="q3SY9Z04a5LSegk2IjPD-23" value="YES" style="edgeStyle=orthogonalEdgeStyle;rounded=0;orthogonalLoop=1;jettySize=auto;html=1;entryX=1;entryY=0.5;entryDx=0;entryDy=0;fontSize=14;" parent="1" source="q3SY9Z04a5LSegk2IjPD-10" target="q3SY9Z04a5LSegk2IjPD-11" edge="1">
          <mxGeometry relative="1" as="geometry" />
        </mxCell>
        <mxCell id="q3SY9Z04a5LSegk2IjPD-31" style="edgeStyle=orthogonalEdgeStyle;rounded=0;orthogonalLoop=1;jettySize=auto;html=1;fontSize=14;" parent="1" source="q3SY9Z04a5LSegk2IjPD-10" target="q3SY9Z04a5LSegk2IjPD-6" edge="1">
          <mxGeometry relative="1" as="geometry">
            <Array as="points">
              <mxPoint x="200" y="360" />
              <mxPoint x="380" y="360" />
            </Array>
          </mxGeometry>
        </mxCell>
        <mxCell id="q3SY9Z04a5LSegk2IjPD-33" value="NO" style="edgeLabel;html=1;align=center;verticalAlign=middle;resizable=0;points=[];fontSize=14;" parent="q3SY9Z04a5LSegk2IjPD-31" vertex="1" connectable="0">
          <mxGeometry x="-0.1883" y="-1" relative="1" as="geometry">
            <mxPoint as="offset" />
          </mxGeometry>
        </mxCell>
        <mxCell id="q3SY9Z04a5LSegk2IjPD-10" value="BUILD&lt;br&gt;SUCESSFUL" style="rhombus;whiteSpace=wrap;html=1;fontSize=14;fillColor=#d5e8d4;strokeColor=#82b366;" parent="1" vertex="1">
          <mxGeometry x="160" y="380" width="80" height="80" as="geometry" />
        </mxCell>
        <mxCell id="q3SY9Z04a5LSegk2IjPD-24" style="edgeStyle=orthogonalEdgeStyle;rounded=0;orthogonalLoop=1;jettySize=auto;html=1;fontSize=14;" parent="1" source="q3SY9Z04a5LSegk2IjPD-11" target="q3SY9Z04a5LSegk2IjPD-12" edge="1">
          <mxGeometry relative="1" as="geometry" />
        </mxCell>
        <mxCell id="q3SY9Z04a5LSegk2IjPD-11" value="MERGE REQUEST TO MAIN" style="rounded=0;whiteSpace=wrap;html=1;fillColor=#dae8fc;strokeColor=#6c8ebf;" parent="1" vertex="1">
          <mxGeometry x="-10" y="390" width="120" height="60" as="geometry" />
        </mxCell>
        <mxCell id="q3SY9Z04a5LSegk2IjPD-25" style="edgeStyle=orthogonalEdgeStyle;rounded=0;orthogonalLoop=1;jettySize=auto;html=1;entryX=0;entryY=0.5;entryDx=0;entryDy=0;fontSize=14;" parent="1" source="q3SY9Z04a5LSegk2IjPD-12" target="q3SY9Z04a5LSegk2IjPD-13" edge="1">
          <mxGeometry relative="1" as="geometry" />
        </mxCell>
        <mxCell id="q3SY9Z04a5LSegk2IjPD-12" value="BUILD AND PUSH IMAGE WITH DEV TAG" style="rounded=0;whiteSpace=wrap;html=1;fillColor=#d5e8d4;strokeColor=#82b366;" parent="1" vertex="1">
          <mxGeometry x="-10" y="525" width="120" height="60" as="geometry" />
        </mxCell>
        <mxCell id="q3SY9Z04a5LSegk2IjPD-26" value="YES" style="edgeStyle=orthogonalEdgeStyle;rounded=0;orthogonalLoop=1;jettySize=auto;html=1;entryX=0;entryY=0.5;entryDx=0;entryDy=0;fontSize=14;" parent="1" source="q3SY9Z04a5LSegk2IjPD-13" target="q3SY9Z04a5LSegk2IjPD-14" edge="1">
          <mxGeometry relative="1" as="geometry" />
        </mxCell>
        <mxCell id="q3SY9Z04a5LSegk2IjPD-35" value="NO" style="edgeStyle=orthogonalEdgeStyle;rounded=0;orthogonalLoop=1;jettySize=auto;html=1;entryX=0;entryY=0.5;entryDx=0;entryDy=0;fontSize=14;" parent="1" source="q3SY9Z04a5LSegk2IjPD-13" target="q3SY9Z04a5LSegk2IjPD-5" edge="1">
          <mxGeometry x="-0.8013" relative="1" as="geometry">
            <Array as="points">
              <mxPoint x="200" y="640" />
              <mxPoint x="-30" y="640" />
              <mxPoint x="-30" y="300" />
            </Array>
            <mxPoint as="offset" />
          </mxGeometry>
        </mxCell>
        <mxCell id="q3SY9Z04a5LSegk2IjPD-13" value="READY FOR RELEASE" style="rhombus;whiteSpace=wrap;html=1;fontSize=14;fillColor=#dae8fc;strokeColor=#6c8ebf;" parent="1" vertex="1">
          <mxGeometry x="160" y="515" width="80" height="80" as="geometry" />
        </mxCell>
        <mxCell id="q3SY9Z04a5LSegk2IjPD-27" style="edgeStyle=orthogonalEdgeStyle;rounded=0;orthogonalLoop=1;jettySize=auto;html=1;entryX=0;entryY=0.5;entryDx=0;entryDy=0;fontSize=14;" parent="1" source="q3SY9Z04a5LSegk2IjPD-14" target="q3SY9Z04a5LSegk2IjPD-15" edge="1">
          <mxGeometry relative="1" as="geometry" />
        </mxCell>
        <mxCell id="q3SY9Z04a5LSegk2IjPD-14" value="CREATE RELEASE BRANCH OFF MAIN" style="rounded=0;whiteSpace=wrap;html=1;fillColor=#dae8fc;strokeColor=#6c8ebf;" parent="1" vertex="1">
          <mxGeometry x="320" y="525" width="120" height="60" as="geometry" />
        </mxCell>
        <mxCell id="q3SY9Z04a5LSegk2IjPD-36" style="edgeStyle=orthogonalEdgeStyle;rounded=0;orthogonalLoop=1;jettySize=auto;html=1;entryX=0.5;entryY=0;entryDx=0;entryDy=0;fontSize=14;" parent="1" source="q3SY9Z04a5LSegk2IjPD-15" target="q3SY9Z04a5LSegk2IjPD-16" edge="1">
          <mxGeometry relative="1" as="geometry" />
        </mxCell>
        <mxCell id="q3SY9Z04a5LSegk2IjPD-15" value="CREATE RELEASE TAG" style="rounded=0;whiteSpace=wrap;html=1;fillColor=#dae8fc;strokeColor=#6c8ebf;" parent="1" vertex="1">
          <mxGeometry x="510" y="525" width="120" height="60" as="geometry" />
        </mxCell>
        <mxCell id="q3SY9Z04a5LSegk2IjPD-16" value="BUILD AND PUSH IMAGE WITH VERSION TAG" style="rounded=0;whiteSpace=wrap;html=1;fillColor=#d5e8d4;strokeColor=#82b366;" parent="1" vertex="1">
          <mxGeometry x="510" y="650" width="120" height="60" as="geometry" />
        </mxCell>
        <mxCell id="kgMDZp9xQUOnS6nS74aD-1" value="HUMAN" style="rounded=0;whiteSpace=wrap;html=1;fillColor=#dae8fc;strokeColor=#6c8ebf;" parent="1" vertex="1">
          <mxGeometry x="-184" y="960" width="120" height="60" as="geometry" />
        </mxCell>
        <mxCell id="kgMDZp9xQUOnS6nS74aD-2" value="&lt;b&gt;&lt;font style=&quot;font-size: 14px&quot;&gt;KEY&lt;/font&gt;&lt;/b&gt;" style="text;html=1;strokeColor=none;fillColor=none;align=center;verticalAlign=middle;whiteSpace=wrap;rounded=0;" parent="1" vertex="1">
          <mxGeometry x="-85" y="911" width="60" height="30" as="geometry" />
        </mxCell>
        <mxCell id="kgMDZp9xQUOnS6nS74aD-3" value="AUTOMATIC" style="rounded=0;whiteSpace=wrap;html=1;fillColor=#d5e8d4;strokeColor=#82b366;" parent="1" vertex="1">
          <mxGeometry x="-34" y="960" width="120" height="60" as="geometry" />
        </mxCell>
        <mxCell id="kgMDZp9xQUOnS6nS74aD-4" style="edgeStyle=orthogonalEdgeStyle;rounded=0;orthogonalLoop=1;jettySize=auto;html=1;entryX=0.5;entryY=0;entryDx=0;entryDy=0;fontSize=14;" parent="1" source="kgMDZp9xQUOnS6nS74aD-5" target="kgMDZp9xQUOnS6nS74aD-7" edge="1">
          <mxGeometry relative="1" as="geometry" />
        </mxCell>
        <mxCell id="kgMDZp9xQUOnS6nS74aD-5" value="NEW FEATURE OR CHANGE" style="ellipse;whiteSpace=wrap;html=1;fontSize=14;fillColor=#f8cecc;strokeColor=#b85450;" parent="1" vertex="1">
          <mxGeometry x="101" y="893" width="120" height="80" as="geometry" />
        </mxCell>
        <mxCell id="kgMDZp9xQUOnS6nS74aD-6" style="edgeStyle=orthogonalEdgeStyle;rounded=0;orthogonalLoop=1;jettySize=auto;html=1;entryX=0;entryY=0.5;entryDx=0;entryDy=0;fontSize=14;" parent="1" source="kgMDZp9xQUOnS6nS74aD-7" target="kgMDZp9xQUOnS6nS74aD-9" edge="1">
          <mxGeometry relative="1" as="geometry" />
        </mxCell>
        <mxCell id="kgMDZp9xQUOnS6nS74aD-7" value="CREATE BRANCH FOR CHANGE" style="rounded=0;whiteSpace=wrap;html=1;fillColor=#dae8fc;strokeColor=#6c8ebf;" parent="1" vertex="1">
          <mxGeometry x="101" y="1043" width="120" height="60" as="geometry" />
        </mxCell>
        <mxCell id="kgMDZp9xQUOnS6nS74aD-8" style="edgeStyle=orthogonalEdgeStyle;rounded=0;orthogonalLoop=1;jettySize=auto;html=1;entryX=0;entryY=0.5;entryDx=0;entryDy=0;fontSize=14;" parent="1" source="kgMDZp9xQUOnS6nS74aD-9" target="kgMDZp9xQUOnS6nS74aD-13" edge="1">
          <mxGeometry relative="1" as="geometry" />
        </mxCell>
        <mxCell id="kgMDZp9xQUOnS6nS74aD-9" value="ADD COMMIT AND PUSH TO REPO" style="rounded=0;whiteSpace=wrap;html=1;fillColor=#dae8fc;strokeColor=#6c8ebf;" parent="1" vertex="1">
          <mxGeometry x="281" y="1043" width="120" height="60" as="geometry" />
        </mxCell>
        <mxCell id="kgMDZp9xQUOnS6nS74aD-10" value="YES" style="edgeStyle=orthogonalEdgeStyle;rounded=0;orthogonalLoop=1;jettySize=auto;html=1;entryX=0.5;entryY=0;entryDx=0;entryDy=0;fontSize=14;" parent="1" source="kgMDZp9xQUOnS6nS74aD-13" target="kgMDZp9xQUOnS6nS74aD-15" edge="1">
          <mxGeometry relative="1" as="geometry">
            <Array as="points">
              <mxPoint x="531" y="1143" />
              <mxPoint x="531" y="1143" />
            </Array>
          </mxGeometry>
        </mxCell>
        <mxCell id="kgMDZp9xQUOnS6nS74aD-11" style="edgeStyle=orthogonalEdgeStyle;rounded=0;orthogonalLoop=1;jettySize=auto;html=1;entryX=0.5;entryY=0;entryDx=0;entryDy=0;fontSize=14;" parent="1" source="kgMDZp9xQUOnS6nS74aD-13" target="kgMDZp9xQUOnS6nS74aD-9" edge="1">
          <mxGeometry relative="1" as="geometry">
            <Array as="points">
              <mxPoint x="531" y="973" />
              <mxPoint x="341" y="973" />
            </Array>
          </mxGeometry>
        </mxCell>
        <mxCell id="kgMDZp9xQUOnS6nS74aD-12" value="NO" style="edgeLabel;html=1;align=center;verticalAlign=middle;resizable=0;points=[];fontSize=14;" parent="kgMDZp9xQUOnS6nS74aD-11" vertex="1" connectable="0">
          <mxGeometry x="-0.8924" y="-2" relative="1" as="geometry">
            <mxPoint as="offset" />
          </mxGeometry>
        </mxCell>
        <mxCell id="kgMDZp9xQUOnS6nS74aD-13" value="CHANGE READY" style="rhombus;whiteSpace=wrap;html=1;fontSize=14;fillColor=#dae8fc;strokeColor=#6c8ebf;" parent="1" vertex="1">
          <mxGeometry x="491" y="1033" width="80" height="80" as="geometry" />
        </mxCell>
        <mxCell id="kgMDZp9xQUOnS6nS74aD-14" style="edgeStyle=orthogonalEdgeStyle;rounded=0;orthogonalLoop=1;jettySize=auto;html=1;entryX=1;entryY=0.5;entryDx=0;entryDy=0;fontSize=14;" parent="1" source="kgMDZp9xQUOnS6nS74aD-15" target="kgMDZp9xQUOnS6nS74aD-17" edge="1">
          <mxGeometry relative="1" as="geometry" />
        </mxCell>
        <mxCell id="V3wm4IhKPnmcGys4fz-G-2" style="edgeStyle=orthogonalEdgeStyle;rounded=0;orthogonalLoop=1;jettySize=auto;html=1;entryX=1;entryY=0.5;entryDx=0;entryDy=0;" edge="1" parent="1" source="kgMDZp9xQUOnS6nS74aD-15" target="V3wm4IhKPnmcGys4fz-G-1">
          <mxGeometry relative="1" as="geometry" />
        </mxCell>
        <mxCell id="kgMDZp9xQUOnS6nS74aD-15" value="CREATE MERGE REQUEST TO MAIN" style="rounded=0;whiteSpace=wrap;html=1;fillColor=#dae8fc;strokeColor=#6c8ebf;" parent="1" vertex="1">
          <mxGeometry x="471" y="1163" width="120" height="60" as="geometry" />
        </mxCell>
        <mxCell id="kgMDZp9xQUOnS6nS74aD-16" style="edgeStyle=orthogonalEdgeStyle;rounded=0;orthogonalLoop=1;jettySize=auto;html=1;entryX=1;entryY=0.5;entryDx=0;entryDy=0;fontSize=14;" parent="1" source="kgMDZp9xQUOnS6nS74aD-17" target="kgMDZp9xQUOnS6nS74aD-21" edge="1">
          <mxGeometry relative="1" as="geometry" />
        </mxCell>
        <mxCell id="kgMDZp9xQUOnS6nS74aD-17" value="RUN UNIT TEST" style="rounded=0;whiteSpace=wrap;html=1;fillColor=#d5e8d4;strokeColor=#82b366;" parent="1" vertex="1">
          <mxGeometry x="281" y="1163" width="120" height="60" as="geometry" />
        </mxCell>
        <mxCell id="kgMDZp9xQUOnS6nS74aD-18" value="YES" style="edgeStyle=orthogonalEdgeStyle;rounded=0;orthogonalLoop=1;jettySize=auto;html=1;entryX=1;entryY=0.5;entryDx=0;entryDy=0;fontSize=14;" parent="1" source="kgMDZp9xQUOnS6nS74aD-21" target="kgMDZp9xQUOnS6nS74aD-23" edge="1">
          <mxGeometry relative="1" as="geometry" />
        </mxCell>
        <mxCell id="kgMDZp9xQUOnS6nS74aD-19" style="edgeStyle=orthogonalEdgeStyle;rounded=0;orthogonalLoop=1;jettySize=auto;html=1;fontSize=14;" parent="1" source="kgMDZp9xQUOnS6nS74aD-21" target="kgMDZp9xQUOnS6nS74aD-9" edge="1">
          <mxGeometry relative="1" as="geometry">
            <Array as="points">
              <mxPoint x="173" y="1133" />
              <mxPoint x="341" y="1133" />
            </Array>
          </mxGeometry>
        </mxCell>
        <mxCell id="kgMDZp9xQUOnS6nS74aD-20" value="NO" style="edgeLabel;html=1;align=center;verticalAlign=middle;resizable=0;points=[];fontSize=14;" parent="kgMDZp9xQUOnS6nS74aD-19" vertex="1" connectable="0">
          <mxGeometry x="-0.1883" y="-1" relative="1" as="geometry">
            <mxPoint as="offset" />
          </mxGeometry>
        </mxCell>
        <mxCell id="kgMDZp9xQUOnS6nS74aD-21" value="UNIT TEST PASS?" style="rhombus;whiteSpace=wrap;html=1;fontSize=14;fillColor=#d5e8d4;strokeColor=#82b366;" parent="1" vertex="1">
          <mxGeometry x="133" y="1153" width="80" height="80" as="geometry" />
        </mxCell>
        <mxCell id="kgMDZp9xQUOnS6nS74aD-22" style="edgeStyle=orthogonalEdgeStyle;rounded=0;orthogonalLoop=1;jettySize=auto;html=1;fontSize=14;" parent="1" source="kgMDZp9xQUOnS6nS74aD-23" target="kgMDZp9xQUOnS6nS74aD-25" edge="1">
          <mxGeometry relative="1" as="geometry" />
        </mxCell>
        <mxCell id="kgMDZp9xQUOnS6nS74aD-23" value="MERGE REQUEST TO MAIN" style="rounded=0;whiteSpace=wrap;html=1;fillColor=#dae8fc;strokeColor=#6c8ebf;" parent="1" vertex="1">
          <mxGeometry x="-49" y="1163" width="120" height="60" as="geometry" />
        </mxCell>
        <mxCell id="kgMDZp9xQUOnS6nS74aD-45" style="edgeStyle=orthogonalEdgeStyle;rounded=0;orthogonalLoop=1;jettySize=auto;html=1;" parent="1" source="kgMDZp9xQUOnS6nS74aD-25" target="kgMDZp9xQUOnS6nS74aD-35" edge="1">
          <mxGeometry relative="1" as="geometry" />
        </mxCell>
        <mxCell id="kgMDZp9xQUOnS6nS74aD-25" value="DEPLOY TO STAGING" style="rounded=0;whiteSpace=wrap;html=1;fillColor=#d5e8d4;strokeColor=#82b366;" parent="1" vertex="1">
          <mxGeometry x="-49" y="1327" width="120" height="60" as="geometry" />
        </mxCell>
        <mxCell id="kgMDZp9xQUOnS6nS74aD-31" style="edgeStyle=orthogonalEdgeStyle;rounded=0;orthogonalLoop=1;jettySize=auto;html=1;entryX=0.5;entryY=0;entryDx=0;entryDy=0;fontSize=14;" parent="1" source="kgMDZp9xQUOnS6nS74aD-32" target="kgMDZp9xQUOnS6nS74aD-33" edge="1">
          <mxGeometry relative="1" as="geometry" />
        </mxCell>
        <mxCell id="kgMDZp9xQUOnS6nS74aD-32" value="CREATE MERGE REQUEST TO PRODUCTION" style="rounded=0;whiteSpace=wrap;html=1;fillColor=#dae8fc;strokeColor=#6c8ebf;" parent="1" vertex="1">
          <mxGeometry x="471" y="1327" width="120" height="60" as="geometry" />
        </mxCell>
        <mxCell id="kgMDZp9xQUOnS6nS74aD-44" style="edgeStyle=orthogonalEdgeStyle;rounded=0;orthogonalLoop=1;jettySize=auto;html=1;entryX=1;entryY=0.5;entryDx=0;entryDy=0;" parent="1" source="kgMDZp9xQUOnS6nS74aD-33" target="kgMDZp9xQUOnS6nS74aD-37" edge="1">
          <mxGeometry relative="1" as="geometry" />
        </mxCell>
        <mxCell id="kgMDZp9xQUOnS6nS74aD-33" value="RUN UNIT TEST" style="rounded=0;whiteSpace=wrap;html=1;fillColor=#d5e8d4;strokeColor=#82b366;" parent="1" vertex="1">
          <mxGeometry x="471" y="1450" width="120" height="60" as="geometry" />
        </mxCell>
        <mxCell id="kgMDZp9xQUOnS6nS74aD-47" style="edgeStyle=orthogonalEdgeStyle;rounded=0;orthogonalLoop=1;jettySize=auto;html=1;entryX=0;entryY=0.5;entryDx=0;entryDy=0;" parent="1" source="kgMDZp9xQUOnS6nS74aD-35" target="kgMDZp9xQUOnS6nS74aD-36" edge="1">
          <mxGeometry relative="1" as="geometry" />
        </mxCell>
        <mxCell id="kgMDZp9xQUOnS6nS74aD-35" value="TEST STAGING SITE" style="rounded=0;whiteSpace=wrap;html=1;fillColor=#dae8fc;strokeColor=#6c8ebf;" parent="1" vertex="1">
          <mxGeometry x="111" y="1327" width="120" height="60" as="geometry" />
        </mxCell>
        <mxCell id="kgMDZp9xQUOnS6nS74aD-48" value="YES" style="edgeStyle=orthogonalEdgeStyle;rounded=0;orthogonalLoop=1;jettySize=auto;html=1;" parent="1" source="kgMDZp9xQUOnS6nS74aD-36" target="kgMDZp9xQUOnS6nS74aD-32" edge="1">
          <mxGeometry relative="1" as="geometry" />
        </mxCell>
        <mxCell id="kgMDZp9xQUOnS6nS74aD-49" value="NO" style="edgeStyle=orthogonalEdgeStyle;rounded=0;orthogonalLoop=1;jettySize=auto;html=1;" parent="1" source="kgMDZp9xQUOnS6nS74aD-36" edge="1">
          <mxGeometry relative="1" as="geometry">
            <mxPoint x="532" y="976" as="targetPoint" />
            <Array as="points">
              <mxPoint x="337" y="1301" />
              <mxPoint x="711" y="1301" />
              <mxPoint x="711" y="976" />
            </Array>
          </mxGeometry>
        </mxCell>
        <mxCell id="kgMDZp9xQUOnS6nS74aD-36" value="STAGING WORKING EXPECT" style="rhombus;whiteSpace=wrap;html=1;fillColor=#dae8fc;strokeColor=#6c8ebf;" parent="1" vertex="1">
          <mxGeometry x="297" y="1317" width="80" height="80" as="geometry" />
        </mxCell>
        <mxCell id="kgMDZp9xQUOnS6nS74aD-43" value="YES" style="edgeStyle=orthogonalEdgeStyle;rounded=0;orthogonalLoop=1;jettySize=auto;html=1;entryX=1;entryY=0.5;entryDx=0;entryDy=0;" parent="1" source="kgMDZp9xQUOnS6nS74aD-37" target="kgMDZp9xQUOnS6nS74aD-38" edge="1">
          <mxGeometry relative="1" as="geometry" />
        </mxCell>
        <mxCell id="kgMDZp9xQUOnS6nS74aD-50" value="NO" style="edgeStyle=orthogonalEdgeStyle;rounded=0;orthogonalLoop=1;jettySize=auto;html=1;entryX=0;entryY=0.5;entryDx=0;entryDy=0;" parent="1" source="kgMDZp9xQUOnS6nS74aD-37" target="kgMDZp9xQUOnS6nS74aD-7" edge="1">
          <mxGeometry relative="1" as="geometry">
            <Array as="points">
              <mxPoint x="341" y="1421" />
              <mxPoint x="-132" y="1421" />
              <mxPoint x="-132" y="1073" />
            </Array>
          </mxGeometry>
        </mxCell>
        <mxCell id="kgMDZp9xQUOnS6nS74aD-37" value="UNIT TEST PASS?" style="rhombus;whiteSpace=wrap;html=1;fillColor=#d5e8d4;strokeColor=#82b366;" parent="1" vertex="1">
          <mxGeometry x="301" y="1440" width="80" height="80" as="geometry" />
        </mxCell>
        <mxCell id="kgMDZp9xQUOnS6nS74aD-42" style="edgeStyle=orthogonalEdgeStyle;rounded=0;orthogonalLoop=1;jettySize=auto;html=1;entryX=1;entryY=0.5;entryDx=0;entryDy=0;" parent="1" source="kgMDZp9xQUOnS6nS74aD-38" target="kgMDZp9xQUOnS6nS74aD-39" edge="1">
          <mxGeometry relative="1" as="geometry" />
        </mxCell>
        <mxCell id="kgMDZp9xQUOnS6nS74aD-38" value="MERGE TO PRODUCTION" style="rounded=0;whiteSpace=wrap;html=1;fillColor=#dae8fc;strokeColor=#6c8ebf;" parent="1" vertex="1">
          <mxGeometry x="110" y="1450" width="120" height="60" as="geometry" />
        </mxCell>
        <mxCell id="kgMDZp9xQUOnS6nS74aD-41" style="edgeStyle=orthogonalEdgeStyle;rounded=0;orthogonalLoop=1;jettySize=auto;html=1;" parent="1" source="kgMDZp9xQUOnS6nS74aD-39" target="kgMDZp9xQUOnS6nS74aD-40" edge="1">
          <mxGeometry relative="1" as="geometry" />
        </mxCell>
        <mxCell id="kgMDZp9xQUOnS6nS74aD-39" value="DEPLOY TO PRODUCTION" style="rounded=0;whiteSpace=wrap;html=1;fillColor=#d5e8d4;strokeColor=#82b366;" parent="1" vertex="1">
          <mxGeometry x="-49" y="1450" width="120" height="60" as="geometry" />
        </mxCell>
        <mxCell id="kgMDZp9xQUOnS6nS74aD-40" value="COMPLETE DEPLOYMENT" style="ellipse;whiteSpace=wrap;html=1;fillColor=#f8cecc;strokeColor=#b85450;" parent="1" vertex="1">
          <mxGeometry x="-49" y="1588" width="120" height="80" as="geometry" />
        </mxCell>
        <mxCell id="V3wm4IhKPnmcGys4fz-G-6" style="edgeStyle=orthogonalEdgeStyle;rounded=0;orthogonalLoop=1;jettySize=auto;html=1;entryX=1;entryY=0.5;entryDx=0;entryDy=0;" edge="1" parent="1" source="V3wm4IhKPnmcGys4fz-G-1" target="kgMDZp9xQUOnS6nS74aD-23">
          <mxGeometry relative="1" as="geometry">
            <Array as="points">
              <mxPoint x="124" y="1260" />
              <mxPoint x="124" y="1193" />
            </Array>
          </mxGeometry>
        </mxCell>
        <mxCell id="V3wm4IhKPnmcGys4fz-G-1" value="RUN SONAR SCAN" style="rounded=0;whiteSpace=wrap;html=1;fillColor=#d5e8d4;strokeColor=#82b366;" vertex="1" parent="1">
          <mxGeometry x="281" y="1230" width="120" height="60" as="geometry" />
        </mxCell>
      </root>
    </mxGraphModel>
  </diagram>
</mxfile>
